<mxfile host="app.diagrams.net" modified="2023-12-24T00:28:47.093Z" agent="Mozilla/5.0 (Windows NT 10.0; Win64; x64) AppleWebKit/537.36 (KHTML, like Gecko) Chrome/120.0.0.0 Safari/537.36" version="22.1.11" etag="Bv6hdyxINq2NlLEbHnhx" type="github">
  <diagram name="Page-1" id="wRIK1ZwN-KLS3-Z81yji">
    <mxGraphModel>
      <root>
        <mxCell id="0" />
        <mxCell id="1" parent="0" />
      </root>
    </mxGraphModel>
  </diagram>
</mxfile>
